<svg width="362" height="63" viewBox="0 0 362 63" fill="none" xmlns="http://www.w3.org/2000/svg">
<path d="M7.86667 47.7654V15.1679C7.86927 13.2323 8.63934 11.3767 10.008 10.008C11.3767 8.63934 13.2323 7.86927 15.1679 7.86667L213.955 7.86667L219.954 0H15.1679C11.1465 0.0045546 7.29116 1.60406 4.44761 4.44761C1.60406 7.29116 0.0045546 11.1465 0 15.1679V47.7654C0.0045546 51.7868 1.60406 55.6422 4.44761 58.4857C7.29116 61.3293 11.1465 62.9288 15.1679 62.9333L203.977 62.9333C203.9 62.334 203.922 61.7262 204.041 61.1338L204.078 60.9495L204.129 60.77L205.727 55.0667H15.1679C13.2323 55.0641 11.3767 54.294 10.008 52.9253C8.63934 51.5566 7.86927 49.701 7.86667 47.7654Z" fill="#BFBFBF"/>
<path d="M334.832 0H231.783C231.855 0.589769 231.833 1.1873 231.717 1.77L231.68 1.95192L231.628 2.13137L230.021 7.86667L334.832 7.86667C336.768 7.86927 338.623 8.63934 339.992 10.008C341.361 11.3767 342.131 13.2323 342.133 15.1679V47.7654C342.131 49.701 341.361 51.5566 339.992 52.9253C338.623 54.294 336.768 55.0641 334.832 55.0667H221.788L215.784 62.9334L334.832 62.9333C338.853 62.9288 342.709 61.3293 345.552 58.4857C348.396 55.6422 349.995 51.7868 350 47.7654V15.1679C349.995 11.1465 348.396 7.29116 345.552 4.44761C342.709 1.60406 338.853 0.0045546 334.832 0Z" fill="#BFBFBF"/>
<g filter="url(#filter0_d_240_122)">
<path d="M201.051 40.8477C199.961 40.8479 198.891 40.5504 197.957 39.9872C197.023 39.424 196.26 38.6166 195.751 37.6519C195.225 36.6623 194.979 35.5475 195.041 34.4283C195.102 33.309 195.468 32.228 196.1 31.302L196.176 31.1889L196.258 31.0807L209.648 13.5209L17.4167 13.5209C16.1127 13.5209 14.8621 14.0389 13.9401 14.9609C13.018 15.883 12.5 17.1336 12.5 18.4375V44.4959C12.5 45.7999 13.018 47.0504 13.9401 47.9725C14.8621 48.8945 16.1127 49.4125 17.4167 49.4125H207.31L209.714 40.8428L201.051 40.8477Z" fill="#F1DA60"/>
</g>
<path d="M228.934 37.5855L235.589 28.8608C235.682 28.7185 235.747 28.5589 235.778 28.3913C235.788 28.3377 235.795 28.2835 235.798 28.229C235.805 28.1229 235.798 28.0163 235.778 27.9119C235.749 27.7594 235.693 27.6135 235.611 27.4817C235.557 27.3959 235.493 27.3174 235.419 27.2482C235.383 27.2136 235.343 27.1824 235.301 27.1547C235.218 27.0958 235.126 27.0502 235.028 27.0195C234.924 26.9865 234.815 26.9699 234.706 26.9704H219.558L222.537 16.3479L223.331 13.5208L224.858 8.07316L224.983 7.62083L226.898 0.796494C226.906 0.751817 226.91 0.706607 226.911 0.661285C226.911 0.646535 226.911 0.634242 226.911 0.62195C226.911 0.609659 226.911 0.558033 226.898 0.528533C226.886 0.499033 226.898 0.506408 226.898 0.494116C226.889 0.455824 226.875 0.418728 226.857 0.383492C226.837 0.350239 226.816 0.318219 226.793 0.287617L226.771 0.263036C226.751 0.242931 226.731 0.224045 226.709 0.206491L226.685 0.186824C226.654 0.16485 226.622 0.145134 226.589 0.127827C226.556 0.112739 226.523 0.101199 226.488 0.0934102H226.456H226.375H226.343C226.306 0.0897942 226.269 0.0897942 226.232 0.0934102C226.196 0.101606 226.162 0.113981 226.129 0.130284L226.097 0.147494L226.023 0.199117L225.996 0.223702C225.963 0.253825 225.933 0.287642 225.908 0.324494L221.483 6.13353L218.252 10.3668L215.831 13.5208L200.169 34.0602C200.128 34.1228 200.092 34.1885 200.061 34.2569C200.022 34.3424 199.993 34.4324 199.975 34.5248C199.954 34.6291 199.947 34.7358 199.955 34.842C199.963 35.0211 200.012 35.1962 200.097 35.354C200.182 35.5119 200.302 35.6486 200.447 35.754C200.489 35.7823 200.534 35.8077 200.58 35.8302C200.724 35.9003 200.883 35.9364 201.044 35.9359H216.192L208.862 62.0975C208.858 62.1433 208.858 62.1893 208.862 62.2352C208.862 62.2352 208.862 62.2597 208.862 62.272C208.864 62.3035 208.869 62.3348 208.876 62.3654C208.875 62.3769 208.875 62.3884 208.876 62.3999C208.886 62.4382 208.9 62.4753 208.918 62.5105C208.937 62.543 208.959 62.5742 208.982 62.6039L209.004 62.6285L209.066 62.6875C209.075 62.6926 209.083 62.6993 209.09 62.7072C209.12 62.7292 209.152 62.7482 209.186 62.7637C209.219 62.7777 209.253 62.7892 209.287 62.7981H209.319C209.346 62.8005 209.373 62.8005 209.4 62.7981H209.432C209.469 62.7968 209.506 62.7919 209.543 62.7834C209.578 62.7739 209.611 62.7607 209.643 62.744L209.675 62.7268L209.749 62.6752L209.776 62.6531C209.809 62.6229 209.839 62.5891 209.865 62.5523L215.597 55.0667L219.907 49.4125L228.934 37.5855Z" fill="#F19D60"/>
<path d="M239.61 31.6952L239.497 31.8427L226.092 49.4124L331.583 49.4125C332.887 49.4125 334.138 48.8945 335.06 47.9725C335.982 47.0504 336.5 45.7999 336.5 44.4959V31.4667V18.4375C336.5 17.1336 335.982 15.883 335.06 14.9609C334.138 14.0389 332.887 13.5209 331.583 13.5209L228.437 13.5208L226.043 22.0585H234.706C235.786 22.0572 236.847 22.3484 237.775 22.9011C238.704 23.4537 239.465 24.2474 239.979 25.1978C240.513 26.1787 240.772 27.2857 240.729 28.4017C240.686 29.5177 240.342 30.6013 239.733 31.5379L239.61 31.6952Z" fill="#929292"/>
<path d="M357.933 18C356.89 18 355.89 18.4144 355.152 19.152C354.414 19.8897 354 20.8901 354 21.9333V40.2872C354 41.3304 354.414 42.3309 355.152 43.0685C355.89 43.8062 356.89 44.2206 357.933 44.2206C358.977 44.2206 359.977 43.8062 360.715 43.0685C361.452 42.3309 361.867 41.3304 361.867 40.2872V21.9333C361.867 20.8901 361.452 19.8897 360.715 19.152C359.977 18.4144 358.977 18 357.933 18Z" fill="#BFBFBF"/>
<defs>
<filter id="filter0_d_240_122" x="5.5" y="6.52087" width="211.214" height="49.8917" filterUnits="userSpaceOnUse" color-interpolation-filters="sRGB">
<feFlood flood-opacity="0" result="BackgroundImageFix"/>
<feColorMatrix in="SourceAlpha" type="matrix" values="0 0 0 0 0 0 0 0 0 0 0 0 0 0 0 0 0 0 127 0" result="hardAlpha"/>
<feOffset/>
<feGaussianBlur stdDeviation="3.5"/>
<feComposite in2="hardAlpha" operator="out"/>
<feColorMatrix type="matrix" values="0 0 0 0 1 0 0 0 0 0.6 0 0 0 0 0 0 0 0 1 0"/>
<feBlend mode="normal" in2="BackgroundImageFix" result="effect1_dropShadow_240_122"/>
<feBlend mode="normal" in="SourceGraphic" in2="effect1_dropShadow_240_122" result="shape"/>
</filter>
</defs>
</svg>
