<svg width="365" height="77" viewBox="0 0 365 77" fill="none" xmlns="http://www.w3.org/2000/svg">
<g filter="url(#filter0_d_128_106)">
<path d="M10.8667 54.7654V22.1679C10.8693 20.2323 11.6393 18.3767 13.008 17.008C14.3767 15.6393 16.2323 14.8693 18.1679 14.8667L216.955 14.8667L222.954 7H18.1679C14.1465 7.00455 10.2912 8.60406 7.44761 11.4476C4.60406 14.2912 3.00455 18.1465 3 22.1679V54.7654C3.00455 58.7868 4.60406 62.6422 7.44761 65.4857C10.2912 68.3293 14.1465 69.9288 18.1679 69.9333L206.977 69.9333C206.9 69.334 206.922 68.7262 207.041 68.1338L207.078 67.9495L207.129 67.77L208.727 62.0667H18.1679C16.2323 62.0641 14.3767 61.294 13.008 59.9253C11.6393 58.5566 10.8693 56.701 10.8667 54.7654Z" fill="#BFBFBF"/>
</g>
<g filter="url(#filter1_d_128_106)">
<path d="M337.832 7H234.783C234.855 7.58977 234.833 8.1873 234.717 8.77L234.68 8.95192L234.628 9.13137L233.021 14.8667L337.832 14.8667C339.768 14.8693 341.623 15.6393 342.992 17.008C344.361 18.3767 345.131 20.2323 345.133 22.1679V54.7654C345.131 56.701 344.361 58.5566 342.992 59.9253C341.623 61.294 339.768 62.0641 337.832 62.0667H224.788L218.784 69.9334L337.832 69.9333C341.853 69.9288 345.709 68.3293 348.552 65.4857C351.396 62.6422 352.995 58.7868 353 54.7654V22.1679C352.995 18.1465 351.396 14.2912 348.552 11.4476C345.709 8.60406 341.853 7.00455 337.832 7Z" fill="#BFBFBF"/>
</g>
<g filter="url(#filter2_d_128_106)">
<path d="M204.051 47.8477C202.961 47.8479 201.891 47.5504 200.957 46.9872C200.023 46.424 199.26 45.6166 198.751 44.6519C198.225 43.6623 197.979 42.5475 198.041 41.4283C198.102 40.309 198.468 39.228 199.1 38.302L199.176 38.1889L199.258 38.0807L212.648 20.5209L20.4167 20.5209C19.1127 20.5209 17.8621 21.0389 16.9401 21.9609C16.018 22.883 15.5 24.1336 15.5 25.4375V51.4959C15.5 52.7999 16.018 54.0504 16.9401 54.9725C17.8621 55.8945 19.1127 56.4125 20.4167 56.4125H210.31L212.714 47.8428L204.051 47.8477Z" fill="#F1DA60"/>
</g>
<g filter="url(#filter3_d_128_106)">
<path d="M231.934 44.5855L238.589 35.8608C238.682 35.7185 238.747 35.5589 238.778 35.3913C238.788 35.3377 238.795 35.2835 238.798 35.229C238.805 35.1229 238.798 35.0163 238.778 34.9119C238.749 34.7594 238.693 34.6135 238.611 34.4817C238.557 34.3959 238.493 34.3174 238.419 34.2482C238.383 34.2136 238.343 34.1824 238.301 34.1547C238.218 34.0958 238.126 34.0502 238.028 34.0195C237.924 33.9865 237.815 33.9699 237.706 33.9704H222.558L225.537 23.3479L226.331 20.5208L227.858 15.0732L227.983 14.6208L229.898 7.79649C229.906 7.75182 229.91 7.70661 229.911 7.66128C229.911 7.64653 229.911 7.63424 229.911 7.62195C229.911 7.60966 229.911 7.55803 229.898 7.52853C229.886 7.49903 229.898 7.50641 229.898 7.49412C229.889 7.45582 229.875 7.41873 229.857 7.38349C229.837 7.35024 229.816 7.31822 229.793 7.28762L229.771 7.26304C229.751 7.24293 229.731 7.22404 229.709 7.20649L229.685 7.18682C229.654 7.16485 229.622 7.14513 229.589 7.12783C229.556 7.11274 229.523 7.1012 229.488 7.09341H229.456H229.375H229.343C229.306 7.08979 229.269 7.08979 229.232 7.09341C229.196 7.10161 229.162 7.11398 229.129 7.13028L229.097 7.14749L229.023 7.19912L228.996 7.2237C228.963 7.25383 228.933 7.28764 228.908 7.32449L224.483 13.1335L221.252 17.3668L218.831 20.5208L203.169 41.0602C203.128 41.1228 203.092 41.1885 203.061 41.2569C203.022 41.3424 202.993 41.4324 202.975 41.5248C202.954 41.6291 202.947 41.7358 202.955 41.842C202.963 42.0211 203.012 42.1962 203.097 42.354C203.182 42.5119 203.302 42.6486 203.447 42.754C203.489 42.7823 203.534 42.8077 203.58 42.8302C203.724 42.9003 203.883 42.9364 204.044 42.9359H219.192L211.862 69.0975C211.858 69.1433 211.858 69.1893 211.862 69.2352C211.862 69.2352 211.862 69.2597 211.862 69.272C211.864 69.3035 211.869 69.3348 211.876 69.3654C211.875 69.3769 211.875 69.3884 211.876 69.3999C211.886 69.4382 211.9 69.4753 211.918 69.5105C211.937 69.543 211.959 69.5742 211.982 69.6039L212.004 69.6285L212.066 69.6875C212.075 69.6926 212.083 69.6993 212.09 69.7072C212.12 69.7292 212.152 69.7482 212.186 69.7637C212.219 69.7777 212.253 69.7892 212.287 69.7981H212.319C212.346 69.8005 212.373 69.8005 212.4 69.7981H212.432C212.469 69.7968 212.506 69.7919 212.543 69.7834C212.578 69.7739 212.611 69.7607 212.643 69.744L212.675 69.7268L212.749 69.6752L212.776 69.6531C212.809 69.6229 212.839 69.5891 212.865 69.5523L218.597 62.0667L222.907 56.4125L231.934 44.5855Z" fill="#F1DA60"/>
</g>
<g filter="url(#filter4_d_128_106)">
<path d="M242.61 38.6952L242.497 38.8427L229.092 56.4124L334.583 56.4125C335.887 56.4125 337.138 55.8945 338.06 54.9725C338.982 54.0504 339.5 52.7999 339.5 51.4959V38.4667V25.4375C339.5 24.1336 338.982 22.883 338.06 21.9609C337.138 21.0389 335.887 20.5209 334.583 20.5209L231.437 20.5208L229.043 29.0585H237.706C238.786 29.0572 239.847 29.3484 240.775 29.9011C241.704 30.4537 242.465 31.2474 242.979 32.1978C243.513 33.1787 243.772 34.2857 243.729 35.4017C243.686 36.5177 243.342 37.6013 242.733 38.5379L242.61 38.6952Z" fill="#F1DA60"/>
</g>
<path d="M360.933 25C359.89 25 358.89 25.4144 358.152 26.152C357.414 26.8897 357 27.8901 357 28.9333V47.2872C357 48.3304 357.414 49.3309 358.152 50.0685C358.89 50.8062 359.89 51.2206 360.933 51.2206C361.977 51.2206 362.977 50.8062 363.715 50.0685C364.452 49.3309 364.867 48.3304 364.867 47.2872V28.9333C364.867 27.8901 364.452 26.8897 363.715 26.152C362.977 25.4144 361.977 25 360.933 25Z" fill="#BFBFBF"/>
<g filter="url(#filter5_d_128_106)">
<path d="M33.5302 51.198C32.2982 51.198 31.1542 50.967 30.0982 50.505C29.0422 50.043 28.2062 49.295 27.5902 48.261C26.9742 47.227 26.6662 45.852 26.6662 44.136V33.939C26.6662 32.223 26.9852 30.848 27.6232 29.814C28.2612 28.78 29.0972 28.032 30.1312 27.57C31.1872 27.108 32.3422 26.877 33.5962 26.877C35.0482 26.877 36.2802 27.13 37.2922 27.636C38.3042 28.142 39.0742 28.813 39.6022 29.649C40.1522 30.485 40.4272 31.409 40.4272 32.421C40.4272 32.949 40.3282 33.301 40.1302 33.477C39.9542 33.631 39.6902 33.708 39.3382 33.708C38.9422 33.708 38.6562 33.631 38.4802 33.477C38.3262 33.301 38.2382 33.103 38.2162 32.883C38.2162 32.531 38.1502 32.135 38.0182 31.695C37.9082 31.233 37.6882 30.793 37.3582 30.375C37.0502 29.935 36.5882 29.583 35.9722 29.319C35.3782 29.033 34.5972 28.89 33.6292 28.89C32.0892 28.89 30.9122 29.308 30.0982 30.144C29.2842 30.958 28.8772 32.223 28.8772 33.939V44.136C28.8772 45.874 29.2842 47.15 30.0982 47.964C30.9342 48.778 32.1442 49.185 33.7282 49.185C34.7182 49.185 35.4992 49.053 36.0712 48.789C36.6432 48.503 37.0722 48.162 37.3582 47.766C37.6442 47.348 37.8422 46.908 37.9522 46.446C38.0842 45.962 38.1722 45.522 38.2162 45.126C38.2602 44.84 38.3592 44.631 38.5132 44.499C38.6892 44.345 38.9532 44.268 39.3052 44.268C39.6792 44.268 39.9542 44.367 40.1302 44.565C40.3282 44.741 40.4272 45.093 40.4272 45.621C40.4272 46.611 40.1522 47.535 39.6022 48.393C39.0522 49.229 38.2602 49.911 37.2262 50.439C36.2142 50.945 34.9822 51.198 33.5302 51.198ZM51.9571 51C51.6711 51 51.4181 50.934 51.1981 50.802C50.9781 50.648 50.8681 50.428 50.8681 50.142V27.702C50.8681 27.416 50.9781 27.207 51.1981 27.075C51.4181 26.943 51.6711 26.877 51.9571 26.877C52.2211 26.877 52.4631 26.943 52.6831 27.075C52.9251 27.207 53.0461 27.416 53.0461 27.702V37.536H62.5831V27.702C62.5831 27.416 62.6931 27.207 62.9131 27.075C63.1331 26.943 63.3861 26.877 63.6721 26.877C63.9361 26.877 64.1781 26.943 64.3981 27.075C64.6401 27.207 64.7611 27.416 64.7611 27.702V50.142C64.7611 50.428 64.6401 50.648 64.3981 50.802C64.1781 50.934 63.9361 51 63.6721 51C63.3861 51 63.1331 50.934 62.9131 50.802C62.6931 50.648 62.5831 50.428 62.5831 50.142V39.45H53.0461V50.142C53.0461 50.428 52.9251 50.648 52.6831 50.802C52.4631 50.934 52.2211 51 51.9571 51ZM75.791 51C75.615 51 75.428 50.967 75.23 50.901C75.032 50.813 74.867 50.703 74.735 50.571C74.603 50.417 74.537 50.252 74.537 50.076C74.537 49.988 74.548 49.911 74.57 49.845L81.467 27.471C81.555 27.185 81.72 26.987 81.962 26.877C82.204 26.745 82.468 26.679 82.754 26.679C83.062 26.679 83.337 26.745 83.579 26.877C83.843 27.009 84.008 27.207 84.074 27.471L90.938 49.845C90.96 49.911 90.971 49.977 90.971 50.043C90.971 50.219 90.905 50.384 90.773 50.538C90.641 50.67 90.476 50.78 90.278 50.868C90.08 50.956 89.871 51 89.651 51C89.475 51 89.31 50.956 89.156 50.868C89.002 50.78 88.892 50.637 88.826 50.439L87.308 45.357H78.2L76.682 50.439C76.616 50.637 76.506 50.78 76.352 50.868C76.198 50.956 76.011 51 75.791 51ZM78.728 43.476H86.747L82.754 30.177L78.728 43.476ZM113.348 51.066C113.106 51.066 112.886 50.945 112.688 50.703C112.49 50.439 112.325 50.175 112.193 49.911L107.111 40.011H102.92V50.142C102.92 50.428 102.799 50.648 102.557 50.802C102.337 50.934 102.095 51 101.831 51C101.545 51 101.292 50.934 101.072 50.802C100.852 50.648 100.742 50.428 100.742 50.142V27.702C100.742 27.482 100.819 27.295 100.973 27.141C101.127 26.987 101.325 26.899 101.567 26.877H107.408C108.706 26.877 109.894 27.075 110.972 27.471C112.05 27.867 112.908 28.538 113.546 29.484C114.206 30.43 114.536 31.728 114.536 33.378C114.536 34.742 114.305 35.864 113.843 36.744C113.403 37.624 112.787 38.306 111.995 38.79C111.225 39.252 110.356 39.571 109.388 39.747L114.47 49.515C114.536 49.581 114.569 49.658 114.569 49.746C114.591 49.812 114.602 49.878 114.602 49.944C114.602 50.12 114.536 50.296 114.404 50.472C114.294 50.648 114.14 50.791 113.942 50.901C113.744 51.011 113.546 51.066 113.348 51.066ZM102.92 38.13H107.408C108.882 38.13 110.07 37.778 110.972 37.074C111.896 36.348 112.358 35.16 112.358 33.51C112.358 31.838 111.896 30.65 110.972 29.946C110.07 29.242 108.882 28.89 107.408 28.89H102.92V38.13ZM131.376 51.198C130.1 51.198 128.945 50.967 127.911 50.505C126.877 50.043 126.052 49.295 125.436 48.261C124.82 47.227 124.512 45.852 124.512 44.136V33.939C124.512 32.223 124.82 30.848 125.436 29.814C126.052 28.78 126.866 28.032 127.878 27.57C128.912 27.108 130.067 26.877 131.343 26.877C132.751 26.877 133.972 27.13 135.006 27.636C136.04 28.12 136.843 28.791 137.415 29.649C137.987 30.507 138.273 31.497 138.273 32.619C138.273 33.015 138.174 33.301 137.976 33.477C137.778 33.631 137.514 33.708 137.184 33.708C136.876 33.708 136.612 33.642 136.392 33.51C136.194 33.378 136.084 33.169 136.062 32.883C135.974 32.047 135.743 31.332 135.369 30.738C134.995 30.144 134.478 29.693 133.818 29.385C133.158 29.055 132.344 28.89 131.376 28.89C129.902 28.89 128.758 29.308 127.944 30.144C127.13 30.958 126.723 32.223 126.723 33.939V44.136C126.723 45.852 127.13 47.128 127.944 47.964C128.758 48.778 129.902 49.185 131.376 49.185C132.85 49.185 133.994 48.778 134.808 47.964C135.644 47.128 136.062 45.852 136.062 44.136V40.209H131.673C131.409 40.209 131.2 40.121 131.046 39.945C130.914 39.747 130.848 39.527 130.848 39.285C130.848 39.043 130.914 38.823 131.046 38.625C131.2 38.427 131.409 38.328 131.673 38.328H137.448C137.712 38.328 137.91 38.416 138.042 38.592C138.196 38.768 138.273 38.977 138.273 39.219V44.136C138.273 45.852 137.965 47.227 137.349 48.261C136.733 49.295 135.908 50.043 134.874 50.505C133.84 50.967 132.674 51.198 131.376 51.198ZM150.252 51C150.01 51 149.779 50.934 149.559 50.802C149.361 50.648 149.262 50.428 149.262 50.142V27.735C149.262 27.449 149.361 27.24 149.559 27.108C149.779 26.954 150.01 26.877 150.252 26.877H162C162.286 26.877 162.495 26.987 162.627 27.207C162.759 27.405 162.825 27.625 162.825 27.867C162.825 28.131 162.748 28.373 162.594 28.593C162.462 28.791 162.264 28.89 162 28.89H151.44V37.965H156.621C156.885 37.965 157.083 38.064 157.215 38.262C157.369 38.46 157.446 38.691 157.446 38.955C157.446 39.175 157.38 39.384 157.248 39.582C157.116 39.78 156.907 39.879 156.621 39.879H151.44V48.987H162C162.264 48.987 162.462 49.086 162.594 49.284C162.748 49.482 162.825 49.724 162.825 50.01C162.825 50.252 162.759 50.483 162.627 50.703C162.495 50.901 162.286 51 162 51H150.252ZM173.61 51C173.302 51 173.06 50.923 172.884 50.769C172.708 50.615 172.62 50.417 172.62 50.175V27.702C172.62 27.46 172.708 27.262 172.884 27.108C173.06 26.954 173.302 26.877 173.61 26.877H179.451C180.749 26.877 181.915 27.108 182.949 27.57C184.005 28.032 184.83 28.78 185.424 29.814C186.04 30.848 186.348 32.223 186.348 33.939V43.938C186.348 45.654 186.04 47.029 185.424 48.063C184.83 49.097 184.005 49.845 182.949 50.307C181.915 50.769 180.749 51 179.451 51H173.61ZM174.798 48.987H179.451C180.925 48.987 182.08 48.58 182.916 47.766C183.752 46.952 184.17 45.676 184.17 43.938V33.939C184.17 32.201 183.752 30.925 182.916 30.111C182.08 29.297 180.925 28.89 179.451 28.89H174.798V48.987Z" fill="white"/>
</g>
<g filter="url(#filter6_d_128_106)">
<path d="M270.989 51.198C269.691 51.198 268.525 50.967 267.491 50.505C266.457 50.043 265.632 49.295 265.016 48.261C264.4 47.227 264.092 45.852 264.092 44.136V27.702C264.092 27.416 264.202 27.207 264.422 27.075C264.642 26.943 264.895 26.877 265.181 26.877C265.467 26.877 265.72 26.943 265.94 27.075C266.16 27.207 266.27 27.416 266.27 27.702V44.136C266.27 45.874 266.688 47.15 267.524 47.964C268.36 48.778 269.515 49.185 270.989 49.185C272.485 49.185 273.651 48.778 274.487 47.964C275.323 47.15 275.741 45.874 275.741 44.136V27.702C275.741 27.416 275.851 27.207 276.071 27.075C276.291 26.943 276.544 26.877 276.83 26.877C277.116 26.877 277.369 26.943 277.589 27.075C277.809 27.207 277.919 27.416 277.919 27.702V44.136C277.919 45.852 277.611 47.227 276.995 48.261C276.401 49.295 275.576 50.043 274.52 50.505C273.464 50.967 272.287 51.198 270.989 51.198ZM293.478 51C293.192 51 292.939 50.934 292.719 50.802C292.499 50.648 292.389 50.428 292.389 50.142V27.702C292.389 27.482 292.466 27.295 292.62 27.141C292.796 26.987 293.027 26.899 293.313 26.877H299.385C300.661 26.877 301.816 27.108 302.85 27.57C303.884 28.032 304.698 28.78 305.292 29.814C305.886 30.826 306.183 32.179 306.183 33.873V34.203C306.183 35.919 305.875 37.294 305.259 38.328C304.665 39.34 303.84 40.088 302.784 40.572C301.75 41.034 300.595 41.265 299.319 41.265H294.567V50.142C294.567 50.428 294.446 50.648 294.204 50.802C293.984 50.934 293.742 51 293.478 51ZM294.567 39.351H299.319C300.793 39.351 301.937 38.944 302.751 38.13C303.587 37.294 304.005 36.018 304.005 34.302V33.939C304.005 32.201 303.587 30.925 302.751 30.111C301.937 29.297 300.793 28.89 299.319 28.89H294.567V39.351Z" fill="white"/>
</g>
<defs>
<filter id="filter0_d_128_106" x="0" y="4" width="225.954" height="68.9333" filterUnits="userSpaceOnUse" color-interpolation-filters="sRGB">
<feFlood flood-opacity="0" result="BackgroundImageFix"/>
<feColorMatrix in="SourceAlpha" type="matrix" values="0 0 0 0 0 0 0 0 0 0 0 0 0 0 0 0 0 0 127 0" result="hardAlpha"/>
<feOffset/>
<feGaussianBlur stdDeviation="1.5"/>
<feComposite in2="hardAlpha" operator="out"/>
<feColorMatrix type="matrix" values="0 0 0 0 1 0 0 0 0 1 0 0 0 0 1 0 0 0 1 0"/>
<feBlend mode="normal" in2="BackgroundImageFix" result="effect1_dropShadow_128_106"/>
<feBlend mode="normal" in="SourceGraphic" in2="effect1_dropShadow_128_106" result="shape"/>
</filter>
<filter id="filter1_d_128_106" x="215.784" y="4" width="140.216" height="68.9333" filterUnits="userSpaceOnUse" color-interpolation-filters="sRGB">
<feFlood flood-opacity="0" result="BackgroundImageFix"/>
<feColorMatrix in="SourceAlpha" type="matrix" values="0 0 0 0 0 0 0 0 0 0 0 0 0 0 0 0 0 0 127 0" result="hardAlpha"/>
<feOffset/>
<feGaussianBlur stdDeviation="1.5"/>
<feComposite in2="hardAlpha" operator="out"/>
<feColorMatrix type="matrix" values="0 0 0 0 1 0 0 0 0 1 0 0 0 0 1 0 0 0 1 0"/>
<feBlend mode="normal" in2="BackgroundImageFix" result="effect1_dropShadow_128_106"/>
<feBlend mode="normal" in="SourceGraphic" in2="effect1_dropShadow_128_106" result="shape"/>
</filter>
<filter id="filter2_d_128_106" x="8.5" y="13.5209" width="211.214" height="49.8917" filterUnits="userSpaceOnUse" color-interpolation-filters="sRGB">
<feFlood flood-opacity="0" result="BackgroundImageFix"/>
<feColorMatrix in="SourceAlpha" type="matrix" values="0 0 0 0 0 0 0 0 0 0 0 0 0 0 0 0 0 0 127 0" result="hardAlpha"/>
<feOffset/>
<feGaussianBlur stdDeviation="3.5"/>
<feComposite in2="hardAlpha" operator="out"/>
<feColorMatrix type="matrix" values="0 0 0 0 1 0 0 0 0 0.6 0 0 0 0 0 0 0 0 1 0"/>
<feBlend mode="normal" in2="BackgroundImageFix" result="effect1_dropShadow_128_106"/>
<feBlend mode="normal" in="SourceGraphic" in2="effect1_dropShadow_128_106" result="shape"/>
</filter>
<filter id="filter3_d_128_106" x="195.952" y="0.0906982" width="49.8486" height="76.7092" filterUnits="userSpaceOnUse" color-interpolation-filters="sRGB">
<feFlood flood-opacity="0" result="BackgroundImageFix"/>
<feColorMatrix in="SourceAlpha" type="matrix" values="0 0 0 0 0 0 0 0 0 0 0 0 0 0 0 0 0 0 127 0" result="hardAlpha"/>
<feOffset/>
<feGaussianBlur stdDeviation="3.5"/>
<feComposite in2="hardAlpha" operator="out"/>
<feColorMatrix type="matrix" values="0 0 0 0 1 0 0 0 0 0.6 0 0 0 0 0 0 0 0 1 0"/>
<feBlend mode="normal" in2="BackgroundImageFix" result="effect1_dropShadow_128_106"/>
<feBlend mode="normal" in="SourceGraphic" in2="effect1_dropShadow_128_106" result="shape"/>
</filter>
<filter id="filter4_d_128_106" x="222.043" y="13.5208" width="124.457" height="49.8918" filterUnits="userSpaceOnUse" color-interpolation-filters="sRGB">
<feFlood flood-opacity="0" result="BackgroundImageFix"/>
<feColorMatrix in="SourceAlpha" type="matrix" values="0 0 0 0 0 0 0 0 0 0 0 0 0 0 0 0 0 0 127 0" result="hardAlpha"/>
<feOffset/>
<feGaussianBlur stdDeviation="3.5"/>
<feComposite in2="hardAlpha" operator="out"/>
<feColorMatrix type="matrix" values="0 0 0 0 1 0 0 0 0 0.6 0 0 0 0 0 0 0 0 1 0"/>
<feBlend mode="normal" in2="BackgroundImageFix" result="effect1_dropShadow_128_106"/>
<feBlend mode="normal" in="SourceGraphic" in2="effect1_dropShadow_128_106" result="shape"/>
</filter>
<filter id="filter5_d_128_106" x="22.6661" y="22.679" width="167.682" height="32.519" filterUnits="userSpaceOnUse" color-interpolation-filters="sRGB">
<feFlood flood-opacity="0" result="BackgroundImageFix"/>
<feColorMatrix in="SourceAlpha" type="matrix" values="0 0 0 0 0 0 0 0 0 0 0 0 0 0 0 0 0 0 127 0" result="hardAlpha"/>
<feOffset/>
<feGaussianBlur stdDeviation="2"/>
<feComposite in2="hardAlpha" operator="out"/>
<feColorMatrix type="matrix" values="0 0 0 0 1 0 0 0 0 1 0 0 0 0 1 0 0 0 1 0"/>
<feBlend mode="normal" in2="BackgroundImageFix" result="effect1_dropShadow_128_106"/>
<feBlend mode="normal" in="SourceGraphic" in2="effect1_dropShadow_128_106" result="shape"/>
</filter>
<filter id="filter6_d_128_106" x="260.092" y="22.877" width="50.0908" height="32.321" filterUnits="userSpaceOnUse" color-interpolation-filters="sRGB">
<feFlood flood-opacity="0" result="BackgroundImageFix"/>
<feColorMatrix in="SourceAlpha" type="matrix" values="0 0 0 0 0 0 0 0 0 0 0 0 0 0 0 0 0 0 127 0" result="hardAlpha"/>
<feOffset/>
<feGaussianBlur stdDeviation="2"/>
<feComposite in2="hardAlpha" operator="out"/>
<feColorMatrix type="matrix" values="0 0 0 0 1 0 0 0 0 1 0 0 0 0 1 0 0 0 1 0"/>
<feBlend mode="normal" in2="BackgroundImageFix" result="effect1_dropShadow_128_106"/>
<feBlend mode="normal" in="SourceGraphic" in2="effect1_dropShadow_128_106" result="shape"/>
</filter>
</defs>
</svg>
