<svg width="71" height="71" viewBox="0 0 71 71" fill="none" xmlns="http://www.w3.org/2000/svg">
<rect width="71" height="71" rx="10" fill="#2F3238"/>
<path d="M18.3986 25.6975H51.9929" stroke="#6A6A6A" stroke-width="4.19929" stroke-linecap="round" stroke-linejoin="round"/>
<path d="M30.9965 34.0961V46.6939" stroke="#6A6A6A" stroke-width="4.19929" stroke-linecap="round" stroke-linejoin="round"/>
<path d="M39.395 34.0961V46.6939" stroke="#6A6A6A" stroke-width="4.19929" stroke-linecap="round" stroke-linejoin="round"/>
<path d="M20.4982 25.6975L22.5978 50.8932C22.5978 52.0069 23.0402 53.0751 23.8278 53.8626C24.6153 54.6501 25.6834 55.0925 26.7971 55.0925H43.5942C44.708 55.0925 45.7761 54.6501 46.5636 53.8626C47.3511 53.0751 47.7935 52.0069 47.7935 50.8932L49.8932 25.6975" stroke="#6A6A6A" stroke-width="4.19929" stroke-linecap="round" stroke-linejoin="round"/>
<path d="M28.8967 25.6975V19.3986C28.8967 18.8417 29.1179 18.3077 29.5117 17.9139C29.9055 17.5202 30.4395 17.299 30.9964 17.299H39.3949C39.9518 17.299 40.4859 17.5202 40.8796 17.9139C41.2734 18.3077 41.4946 18.8417 41.4946 19.3986V25.6975" stroke="#6A6A6A" stroke-width="4.19929" stroke-linecap="round" stroke-linejoin="round"/>
</svg>
